<?xml version="1.0" encoding="UTF-8" standalone="no"?>
<!-- Created with Inkscape (http://www.inkscape.org/) -->

<svg
   width="150"
   height="225"
   viewBox="0 0 39.6875 59.531249"
   version="1.1"
   id="svg5"
   inkscape:version="1.2.1 (9c6d41e410, 2022-07-14)"
   sodipodi:docname="checker-back.svg"
   xmlns:inkscape="http://www.inkscape.org/namespaces/inkscape"
   xmlns:sodipodi="http://sodipodi.sourceforge.net/DTD/sodipodi-0.dtd"
   xmlns="http://www.w3.org/2000/svg"
   xmlns:svg="http://www.w3.org/2000/svg">
  <sodipodi:namedview
     id="namedview7"
     pagecolor="#ffffff"
     bordercolor="#000000"
     borderopacity="0.25"
     inkscape:showpageshadow="2"
     inkscape:pageopacity="0.0"
     inkscape:pagecheckerboard="0"
     inkscape:deskcolor="#d1d1d1"
     inkscape:document-units="mm"
     showgrid="false"
     inkscape:zoom="1.4770343"
     inkscape:cx="28.43536"
     inkscape:cy="71.088399"
     inkscape:window-width="1366"
     inkscape:window-height="697"
     inkscape:window-x="-8"
     inkscape:window-y="-8"
     inkscape:window-maximized="1"
     inkscape:current-layer="layer1" />
  <defs
     id="defs2">
    <mask
       maskUnits="userSpaceOnUse"
       id="mask1192">
      <rect
         style="fill:#ffffff;fill-opacity:1;stroke-width:0.264583"
         id="rect1194"
         width="101.38841"
         height="140.79735"
         x="-26.153196"
         y="82.400482" />
    </mask>
  </defs>
  <g
     inkscape:label="Layer 1"
     inkscape:groupmode="layer"
     id="layer1">
    <rect
       style="fill:#ffffff;fill-opacity:1;stroke-width:0.264583"
       id="rect5028"
       width="39.67762"
       height="59.471653"
       x="0"
       y="-2.220446e-16" />
    <path
       id="rect2493"
       style="fill:#000000;stroke-width:0.264583"
       d="M 9.4691895 2.2158854 L 10.107393 6.4073608 L 15.491561 5.5872559 L 14.977897 2.2158854 L 9.4691895 2.2158854 z M 15.491561 5.5872559 L 16.311666 10.97194 L 21.69635 10.151835 L 20.876245 4.7671509 L 15.491561 5.5872559 z M 20.876245 4.7671509 L 26.260413 3.9470459 L 25.996863 2.2158854 L 20.487638 2.2158854 L 20.876245 4.7671509 z M 26.260413 3.9470459 L 27.080518 9.3317301 L 32.464685 8.5116252 L 31.64458 3.1269409 L 26.260413 3.9470459 z M 31.64458 3.1269409 L 35.887215 2.4809855 C 35.558349 2.3128735 35.186186 2.2158854 34.790125 2.2158854 L 31.50557 2.2158854 L 31.64458 3.1269409 z M 32.464685 8.5116252 L 33.28479 13.895793 L 37.196696 13.299963 L 37.196696 7.7907389 L 32.464685 8.5116252 z M 33.28479 13.895793 L 27.900623 14.715898 L 28.720728 20.100065 L 34.104895 19.27996 L 33.28479 13.895793 z M 34.104895 19.27996 L 34.925 24.664644 L 37.196696 24.318412 L 37.196696 18.809188 L 34.104895 19.27996 z M 34.925 24.664644 L 29.540833 25.484749 L 30.360937 30.868917 L 35.745105 30.048812 L 34.925 24.664644 z M 35.745105 30.048812 L 36.56521 35.433496 L 37.196696 35.337378 L 37.196696 29.827637 L 35.745105 30.048812 z M 36.56521 35.433496 L 31.181042 36.253601 L 32.001147 41.637769 L 37.196696 40.846602 L 37.196696 39.579496 L 36.56521 35.433496 z M 32.001147 41.637769 L 26.616463 42.457874 L 27.436568 47.842558 L 32.821252 47.022453 L 32.001147 41.637769 z M 32.821252 47.022453 L 33.641357 52.40662 L 37.196696 51.865051 L 37.196696 46.355827 L 32.821252 47.022453 z M 33.641357 52.40662 L 28.256673 53.226725 L 28.879374 57.315365 L 34.389115 57.315365 L 33.641357 52.40662 z M 28.256673 53.226725 L 27.436568 47.842558 L 22.052401 48.662663 L 22.872506 54.04683 L 28.256673 53.226725 z M 22.872506 54.04683 L 17.487821 54.866935 L 17.860925 57.315365 L 23.37015 57.315365 L 22.872506 54.04683 z M 17.487821 54.866935 L 16.667716 49.482768 L 11.283549 50.302356 L 12.103654 55.68704 L 17.487821 54.866935 z M 12.103654 55.68704 L 6.7194865 56.507145 L 6.8424764 57.315365 L 12.351701 57.315365 L 12.103654 55.68704 z M 6.7194865 56.507145 L 5.8993815 51.122461 L 2.490804 51.641809 L 2.490804 54.908793 C 2.490804 55.788915 2.9598135 56.553139 3.6612752 56.97275 L 6.7194865 56.507145 z M 5.8993815 51.122461 L 11.283549 50.302356 L 10.463444 44.918188 L 5.0792765 45.738293 L 5.8993815 51.122461 z M 5.0792765 45.738293 L 4.2591715 40.354126 L 2.490804 40.62336 L 2.490804 46.132585 L 5.0792765 45.738293 z M 4.2591715 40.354126 L 9.643339 39.534021 L 8.823234 34.149337 L 3.4390666 34.969442 L 4.2591715 40.354126 z M 3.4390666 34.969442 L 2.6189616 29.585274 L 2.490804 29.604911 L 2.490804 35.113619 L 3.4390666 34.969442 z M 2.6189616 29.585274 L 8.0031291 28.765169 L 7.1830241 23.380485 L 2.490804 24.09517 L 2.490804 28.743982 L 2.6189616 29.585274 z M 7.1830241 23.380485 L 12.567708 22.56038 L 11.747603 17.176213 L 6.3629191 17.996318 L 7.1830241 23.380485 z M 6.3629191 17.996318 L 5.5428141 12.611633 L 2.490804 13.076721 L 2.490804 18.585946 L 6.3629191 17.996318 z M 5.5428141 12.611633 L 10.927498 11.791528 L 10.107393 6.4073608 L 4.7227091 7.2274658 L 5.5428141 12.611633 z M 4.7227091 7.2274658 L 3.98632 2.3946859 C 3.1076734 2.7525971 2.490804 3.6122014 2.490804 4.6224569 L 2.490804 7.5674967 L 4.7227091 7.2274658 z M 10.927498 11.791528 L 11.747603 17.176213 L 17.131771 16.356108 L 16.311666 10.97194 L 10.927498 11.791528 z M 17.131771 16.356108 L 17.951876 21.740275 L 23.336043 20.92017 L 22.516455 15.536003 L 17.131771 16.356108 z M 22.516455 15.536003 L 27.900623 14.715898 L 27.080518 9.3317301 L 21.69635 10.151835 L 22.516455 15.536003 z M 23.336043 20.92017 L 24.156148 26.304854 L 29.540833 25.484749 L 28.720728 20.100065 L 23.336043 20.92017 z M 24.156148 26.304854 L 18.771981 27.124959 L 19.592086 32.509127 L 24.976253 31.689022 L 24.156148 26.304854 z M 24.976253 31.689022 L 25.796358 37.073706 L 31.181042 36.253601 L 30.360937 30.868917 L 24.976253 31.689022 z M 25.796358 37.073706 L 20.412191 37.893811 L 21.232296 43.277979 L 26.616463 42.457874 L 25.796358 37.073706 z M 21.232296 43.277979 L 15.847611 44.098083 L 16.667716 49.482768 L 22.052401 48.662663 L 21.232296 43.277979 z M 15.847611 44.098083 L 15.028023 38.713916 L 9.643339 39.534021 L 10.463444 44.918188 L 15.847611 44.098083 z M 15.028023 38.713916 L 20.412191 37.893811 L 19.592086 32.509127 L 14.207918 33.329232 L 15.028023 38.713916 z M 14.207918 33.329232 L 13.387813 27.945064 L 8.0031291 28.765169 L 8.823234 34.149337 L 14.207918 33.329232 z M 13.387813 27.945064 L 18.771981 27.124959 L 17.951876 21.740275 L 12.567708 22.56038 L 13.387813 27.945064 z " />
  </g>
</svg>
