<?xml version="1.0" encoding="UTF-8" standalone="no"?>
<!-- Created with Inkscape (http://www.inkscape.org/) -->

<svg
   width="150"
   height="225"
   viewBox="0 0 39.6875 59.531249"
   version="1.1"
   id="svg5"
   inkscape:version="1.2.1 (9c6d41e410, 2022-07-14)"
   sodipodi:docname="default-back.svg"
   xmlns:inkscape="http://www.inkscape.org/namespaces/inkscape"
   xmlns:sodipodi="http://sodipodi.sourceforge.net/DTD/sodipodi-0.dtd"
   xmlns="http://www.w3.org/2000/svg"
   xmlns:svg="http://www.w3.org/2000/svg">
  <sodipodi:namedview
     id="namedview7"
     pagecolor="#ffffff"
     bordercolor="#000000"
     borderopacity="0.25"
     inkscape:showpageshadow="2"
     inkscape:pageopacity="0.0"
     inkscape:pagecheckerboard="0"
     inkscape:deskcolor="#d1d1d1"
     inkscape:document-units="mm"
     showgrid="false"
     inkscape:zoom="2.0888419"
     inkscape:cx="50.745823"
     inkscape:cy="113.46"
     inkscape:window-width="1366"
     inkscape:window-height="697"
     inkscape:window-x="-8"
     inkscape:window-y="-8"
     inkscape:window-maximized="1"
     inkscape:current-layer="layer1" />
  <defs
     id="defs2">
    <mask
       maskUnits="userSpaceOnUse"
       id="mask1192">
      <rect
         style="fill:#ffffff;fill-opacity:1;stroke-width:0.264583"
         id="rect1194"
         width="101.38841"
         height="140.79735"
         x="-26.153196"
         y="82.400482" />
    </mask>
  </defs>
  <g
     inkscape:label="Layer 1"
     inkscape:groupmode="layer"
     id="layer1">
    <rect
       style="fill:#999999;fill-opacity:1;stroke-width:0.264583"
       id="rect5028"
       width="39.67762"
       height="59.471653"
       x="0"
       y="-2.220446e-16" />
    <rect
       style="fill:#ececec;stroke-width:0.264583"
       id="rect2493"
       width="34.706234"
       height="55.099312"
       x="2.490633"
       y="2.2159691"
       ry="2.4066367" />
    <path
       id="text2601"
       style="font-size:46.929px;font-family:sans-serif;-inkscape-font-specification:sans-serif;fill:#999999;fill-opacity:1;stroke-width:3.91075"
       d="M 16.766418 3.5181315 L 12.498462 15.243514 C 13.95738 14.691386 15.551038 14.330086 17.282666 14.16296 L 19.676835 7.4827474 L 22.048783 14.12627 C 23.763057 14.227339 25.382696 14.437437 26.907402 14.757239 L 22.816178 3.5181315 L 16.766418 3.5181315 z M 26.907402 14.757239 L 29.060242 20.67264 C 30.755036 21.392964 32.177333 22.239437 33.326131 23.212537 L 33.705436 23.212537 L 33.705436 16.871322 C 31.880803 16.076432 29.785601 15.407729 27.418998 14.865759 C 27.25057 14.827188 27.078209 14.793065 26.907402 14.757239 z M 29.060242 20.67264 C 28.489629 20.430118 27.888722 20.201279 27.256217 19.98741 C 26.123119 19.593289 24.976372 19.293932 23.817151 19.078939 L 25.657349 24.233146 L 13.673067 24.233146 L 15.478642 19.195211 C 14.413757 19.492058 13.469641 19.917457 12.649874 20.475236 C 10.915569 21.66757 10.048482 23.20336 10.048482 25.08219 C 10.048482 26.762297 10.482026 28.081057 11.349178 29.038538 C 11.488938 29.192856 11.648 29.340369 11.822017 29.482955 L 12.298474 28.128516 L 27.055196 28.128516 L 29.218888 34.278528 C 30.801923 34.975399 32.081893 35.838704 33.055347 36.870101 C 33.282771 37.111063 33.490908 37.368243 33.684249 37.638013 L 35.235575 37.638013 L 29.060242 20.67264 z M 33.684249 37.638013 L 30.400728 37.638013 L 29.218888 34.278528 C 28.334131 33.889047 27.355738 33.550655 26.280566 33.26567 C 24.799181 32.886291 22.992491 32.51594 20.860742 32.154626 C 18.728993 31.793313 17.084946 31.486672 15.928743 31.233752 C 14.095109 30.80944 12.727704 30.225058 11.822017 29.482955 L 9.9151571 34.902262 C 11.330686 35.64902 13.027554 36.232993 15.007869 36.65306 C 16.778305 37.014373 18.449287 37.312725 20.021 37.547579 C 21.610779 37.782433 23.082859 38.080268 24.437785 38.441581 C 26.226286 38.911289 27.554369 39.570668 28.421521 40.419755 C 29.306739 41.268842 29.749089 42.587601 29.749089 44.376103 C 29.749089 46.453655 28.818809 48.11583 26.958044 49.362362 C 25.115346 50.608893 22.532213 51.232015 19.20813 51.232015 C 16.859593 51.232015 14.348459 50.771536 11.67474 49.850187 C 9.0010202 48.928838 6.6432072 47.618884 4.6017863 45.920711 L 4.2224813 45.920711 L 4.2224813 52.641231 C 6.6252156 53.707106 8.9825118 54.511 11.294918 55.05297 C 13.625389 55.594941 16.245296 55.865841 19.15387 55.865841 C 21.86372 55.865841 24.175953 55.541071 26.090914 54.890706 C 28.023941 54.240342 29.713051 53.336997 31.158305 52.180794 C 32.477099 51.11492 33.498023 49.814289 34.22065 48.278707 C 34.961343 46.743125 35.331694 45.189206 35.331694 43.617493 C 35.331694 41.160175 34.780999 39.168315 33.684249 37.638013 z M 9.9151571 34.902262 C 8.7738458 34.300168 7.8150652 33.592833 7.0409139 32.778361 C 6.8105062 32.530976 6.5965007 32.272529 6.3970256 32.005282 L 4.3470215 37.638013 L 8.9529419 37.638013 L 9.9151571 34.902262 z M 6.3970256 32.005282 L 12.498462 15.243514 C 11.128763 15.761877 9.8771111 16.447172 8.7477865 17.304887 C 5.8934103 19.454702 4.466394 22.218607 4.466394 25.596887 C 4.466394 28.146261 5.1106696 30.281884 6.3970256 32.005282 z M 15.478642 19.195211 C 16.690102 18.857504 18.058734 18.686715 19.587435 18.686715 C 21.016383 18.686715 22.425833 18.820901 23.817151 19.078939 L 22.048783 14.12627 C 21.256671 14.079568 20.446893 14.052889 19.614307 14.052889 C 18.81123 14.052889 18.034354 14.090411 17.282666 14.16296 L 15.478642 19.195211 z " />
  </g>
</svg>
